<svg xmlns="http://www.w3.org/2000/svg" viewBox="0 8.859999656677246 223.32000732421875 37.0099983215332" data-asc="0.9052734375" width="223.32000732421875" height="37.0099983215332"><defs/><g fill="#000000"><g transform="translate(0, 0)"><path d="M0 45.26L0 9.47L25.88 9.47L25.88 13.70L4.74 13.70L4.74 24.66L24.54 24.66L24.54 28.86L4.74 28.86L4.74 41.04L26.71 41.04L26.71 45.26L0 45.26ZM32.59 45.26L32.59 9.47L36.99 9.47L36.99 45.26L32.59 45.26ZM75 31.23L75 27.03L90.16 27.00L90.16 40.28Q86.67 43.07 82.96 44.47Q79.25 45.87 75.34 45.87Q70.07 45.87 65.76 43.62Q61.45 41.36 59.25 37.08Q57.06 32.81 57.06 27.54Q57.06 22.31 59.24 17.79Q61.43 13.26 65.53 11.06Q69.63 8.86 74.98 8.86Q78.86 8.86 81.99 10.12Q85.13 11.38 86.91 13.62Q88.70 15.87 89.62 19.48L85.35 20.65Q84.55 17.92 83.35 16.36Q82.15 14.79 79.93 13.85Q77.71 12.92 75 12.92Q71.75 12.92 69.38 13.90Q67.02 14.89 65.56 16.50Q64.11 18.12 63.31 20.04Q61.94 23.36 61.94 27.25Q61.94 32.03 63.59 35.25Q65.23 38.48 68.38 40.04Q71.53 41.60 75.07 41.60Q78.15 41.60 81.08 40.42Q84.01 39.23 85.52 37.89L85.52 31.23L75 31.23ZM113.50 42.07Q111.06 44.14 108.80 45.00Q106.54 45.85 103.96 45.85Q99.68 45.85 97.39 43.76Q95.09 41.67 95.09 38.43Q95.09 36.52 95.96 34.95Q96.83 33.37 98.23 32.42Q99.63 31.47 101.39 30.98Q102.69 30.64 105.30 30.32Q110.62 29.69 113.13 28.81Q113.16 27.91 113.16 27.66Q113.16 24.98 111.91 23.88Q110.23 22.39 106.91 22.39Q103.81 22.39 102.33 23.47Q100.85 24.56 100.15 27.32L95.85 26.73Q96.44 23.97 97.78 22.28Q99.12 20.58 101.66 19.67Q104.20 18.75 107.54 18.75Q110.86 18.75 112.94 19.53Q115.01 20.31 115.99 21.50Q116.97 22.68 117.36 24.49Q117.58 25.61 117.58 28.54L117.58 34.40Q117.58 40.53 117.86 42.15Q118.14 43.77 118.97 45.26L114.38 45.26Q113.70 43.90 113.50 42.07M113.13 32.25Q110.74 33.23 105.96 33.91Q103.25 34.30 102.12 34.79Q101.00 35.28 100.39 36.22Q99.78 37.16 99.78 38.31Q99.78 40.06 101.11 41.24Q102.44 42.41 105.00 42.41Q107.54 42.41 109.52 41.30Q111.50 40.19 112.43 38.26Q113.13 36.77 113.13 33.86L113.13 32.25ZM122.07 45.26L122.07 41.70L138.57 22.75Q135.77 22.90 133.62 22.90L123.05 22.90L123.05 19.34L144.24 19.34L144.24 22.24L130.20 38.70L127.49 41.70Q130.44 41.48 133.03 41.48L145.02 41.48L145.02 45.26L122.07 45.26ZM147.07 45.26L147.07 41.70L163.57 22.75Q160.77 22.90 158.62 22.90L148.05 22.90L148.05 19.34L169.24 19.34L169.24 22.24L155.20 38.70L152.49 41.70Q155.44 41.48 158.03 41.48L170.02 41.48L170.02 45.26L147.07 45.26ZM191.31 42.07Q188.87 44.14 186.61 45.00Q184.35 45.85 181.76 45.85Q177.49 45.85 175.20 43.76Q172.90 41.67 172.90 38.43Q172.90 36.52 173.77 34.95Q174.63 33.37 176.04 32.42Q177.44 31.47 179.20 30.98Q180.49 30.64 183.11 30.32Q188.43 29.69 190.94 28.81Q190.97 27.91 190.97 27.66Q190.97 24.98 189.72 23.88Q188.04 22.39 184.72 22.39Q181.62 22.39 180.14 23.47Q178.66 24.56 177.95 27.32L173.66 26.73Q174.24 23.97 175.59 22.28Q176.93 20.58 179.47 19.67Q182.01 18.75 185.35 18.75Q188.67 18.75 190.75 19.53Q192.82 20.31 193.80 21.50Q194.78 22.68 195.17 24.49Q195.39 25.61 195.39 28.54L195.39 34.40Q195.39 40.53 195.67 42.15Q195.95 43.77 196.78 45.26L192.19 45.26Q191.50 43.90 191.31 42.07M190.94 32.25Q188.55 33.23 183.76 33.91Q181.05 34.30 179.93 34.79Q178.81 35.28 178.20 36.22Q177.59 37.16 177.59 38.31Q177.59 40.06 178.92 41.24Q180.25 42.41 182.81 42.41Q185.35 42.41 187.33 41.30Q189.31 40.19 190.23 38.26Q190.94 36.77 190.94 33.86L190.94 32.25ZM202.20 45.26L202.20 9.47L206.59 9.47L206.59 22.31Q209.67 18.75 214.36 18.75Q217.24 18.75 219.36 19.89Q221.48 21.02 222.40 23.02Q223.32 25.02 223.32 28.83L223.32 45.26L218.92 45.26L218.92 28.83Q218.92 25.54 217.49 24.04Q216.06 22.53 213.45 22.53Q211.50 22.53 209.78 23.55Q208.06 24.56 207.32 26.29Q206.59 28.03 206.59 31.08L206.59 45.26L202.20 45.26Z"/></g></g></svg>