<?xml version="1.0" encoding="utf-8"?>
<!-- Generator: Adobe Illustrator 27.0.1, SVG Export Plug-In . SVG Version: 6.00 Build 0)  -->
<svg version="1.1" id="Layer_1" xmlns="http://www.w3.org/2000/svg" xmlns:xlink="http://www.w3.org/1999/xlink" x="0px" y="0px"
	 viewBox="0 0 864 864" style="enable-background:new 0 0 864 864;" xml:space="preserve">
<metadata><?xpacket begin="﻿" id="W5M0MpCehiHzreSzNTczkc9d"?>
<x:xmpmeta xmlns:x="adobe:ns:meta/" x:xmptk="Adobe XMP Core 7.2-c000 79.1b65a79, 2022/06/13-17:46:14        ">
   <rdf:RDF xmlns:rdf="http://www.w3.org/1999/02/22-rdf-syntax-ns#">
      <rdf:Description rdf:about=""
            xmlns:dc="http://purl.org/dc/elements/1.1/"
            xmlns:xmp="http://ns.adobe.com/xap/1.0/"
            xmlns:xmpGImg="http://ns.adobe.com/xap/1.0/g/img/"
            xmlns:xmpMM="http://ns.adobe.com/xap/1.0/mm/"
            xmlns:stRef="http://ns.adobe.com/xap/1.0/sType/ResourceRef#"
            xmlns:stEvt="http://ns.adobe.com/xap/1.0/sType/ResourceEvent#"
            xmlns:illustrator="http://ns.adobe.com/illustrator/1.0/"
            xmlns:xmpTPg="http://ns.adobe.com/xap/1.0/t/pg/"
            xmlns:stDim="http://ns.adobe.com/xap/1.0/sType/Dimensions#"
            xmlns:xmpG="http://ns.adobe.com/xap/1.0/g/"
            xmlns:pdf="http://ns.adobe.com/pdf/1.3/"
            xmlns:photoshop="http://ns.adobe.com/photoshop/1.0/"
            xmlns:xmpRights="http://ns.adobe.com/xap/1.0/rights/">
         <dc:format>image/svg+xml</dc:format>
         <dc:creator>
            <rdf:Seq>
               <rdf:li>Pixfiniti Creative Lab</rdf:li>
            </rdf:Seq>
         </dc:creator>
         <dc:description>
            <rdf:Alt>
               <rdf:li xml:lang="x-default">Clipart created by Pixfiniti Creative Lab.</rdf:li>
            </rdf:Alt>
         </dc:description>
         <dc:rights>
            <rdf:Alt>
               <rdf:li xml:lang="x-default">Clipart created by Dreamstale &amp; Pixfiniti Creative Lab.</rdf:li>
            </rdf:Alt>
         </dc:rights>
         <dc:title>
            <rdf:Alt>
               <rdf:li xml:lang="x-default">Free Tree Clipart</rdf:li>
            </rdf:Alt>
         </dc:title>
         <xmp:MetadataDate>2022-11-24T15:22:20+02:00</xmp:MetadataDate>
         <xmp:ModifyDate>2022-11-24T15:22:20+02:00</xmp:ModifyDate>
         <xmp:CreateDate>2022-11-24T15:22:20+02:00</xmp:CreateDate>
         <xmp:CreatorTool>Adobe Illustrator 27.0 (Macintosh)</xmp:CreatorTool>
         <xmp:Rating>5</xmp:Rating>
         <xmp:Thumbnails>
            <rdf:Alt>
               <rdf:li rdf:parseType="Resource">
                  <xmpGImg:width>256</xmpGImg:width>
                  <xmpGImg:height>240</xmpGImg:height>
                  <xmpGImg:format>JPEG</xmpGImg:format>
                  <xmpGImg:image>/9j/4AAQSkZJRgABAgEASABIAAD/7QAsUGhvdG9zaG9wIDMuMAA4QklNA+0AAAAAABAASAAAAAEA&#xA;AQBIAAAAAQAB/+4ADkFkb2JlAGTAAAAAAf/bAIQABgQEBAUEBgUFBgkGBQYJCwgGBggLDAoKCwoK&#xA;DBAMDAwMDAwQDA4PEA8ODBMTFBQTExwbGxscHx8fHx8fHx8fHwEHBwcNDA0YEBAYGhURFRofHx8f&#xA;Hx8fHx8fHx8fHx8fHx8fHx8fHx8fHx8fHx8fHx8fHx8fHx8fHx8fHx8fHx8f/8AAEQgA8AEAAwER&#xA;AAIRAQMRAf/EAaIAAAAHAQEBAQEAAAAAAAAAAAQFAwIGAQAHCAkKCwEAAgIDAQEBAQEAAAAAAAAA&#xA;AQACAwQFBgcICQoLEAACAQMDAgQCBgcDBAIGAnMBAgMRBAAFIRIxQVEGE2EicYEUMpGhBxWxQiPB&#xA;UtHhMxZi8CRygvElQzRTkqKyY3PCNUQnk6OzNhdUZHTD0uIIJoMJChgZhJRFRqS0VtNVKBry4/PE&#xA;1OT0ZXWFlaW1xdXl9WZ2hpamtsbW5vY3R1dnd4eXp7fH1+f3OEhYaHiImKi4yNjo+Ck5SVlpeYmZ&#xA;qbnJ2en5KjpKWmp6ipqqusra6voRAAICAQIDBQUEBQYECAMDbQEAAhEDBCESMUEFURNhIgZxgZEy&#xA;obHwFMHR4SNCFVJicvEzJDRDghaSUyWiY7LCB3PSNeJEgxdUkwgJChgZJjZFGidkdFU38qOzwygp&#xA;0+PzhJSktMTU5PRldYWVpbXF1eX1RlZmdoaWprbG1ub2R1dnd4eXp7fH1+f3OEhYaHiImKi4yNjo&#xA;+DlJWWl5iZmpucnZ6fkqOkpaanqKmqq6ytrq+v/aAAwDAQACEQMRAD8A9U4q7FXYq7FXYq7FXYq7&#xA;FXYq7FXYq7FXYqg9R1nSdNNsNRvYLNr2ZbWzE8ixmWeT7EUfIjk7dlG+KozFXYq+Gfzv/wCckPNP&#xA;mzWbvSvLt9LpflW3doYRauY5bsKeJllkWjcH/ZQGlOtTirHfyD/L3X/O35g2gsp7i0sdPkW61fU4&#xA;HeKSOINXgsqlWEkxHFaGvVuxxV+hGKuxV2KuxV2KuxV2KuxV2KuxV2KuxV2KuxV2KuxV2KuxV2Ku&#xA;xV2KuxV2KuxV2Kqc1zbwBTPKkQY0UuwWp8BXFVTFXxJ/zmF5o1G9/NOPSPUZLTQ7WH6tGDQCa4UT&#xA;SSin7RBRf9jir6U/5x+/MKfz1+Wen6nev6mrWbNp+pv3aeACkh95InR29ycVZr5l8w6b5c8v6hru&#xA;pv6djpsD3E7dyEFeK+LMfhUdzir5T8j/APOG93ren6frWta2dMsr+FLv9GQw+pcxxzKHWJ5XKKrq&#xA;rbngd+2Kvp/yR5F8seSdCj0Ty7aC1s0PORieUsshADSSud2Y0/gKDbFU/wAVdirsVdirsVdirsVd&#xA;irsVdirsVdirsVdirsVdirsVdirsVdirsVdirsVdirzf8/POHnbyx5FkuPJumXF9q9zIITc28LXH&#xA;1SLiWedkUN4cVqKAmp6UKr4D1zVtc1TUpbvW7u4vNRYn1prt3klr4EuSR8sVfSv/ADjjrP576F5Y&#xA;u5IPK9z5i8sMyHT7a7u0sZY9iXa0+sgl4iCKqKLX7O/LFXmf/OSeqS6357j1ybQNT8vXVzaxxXtp&#xA;qkIj5SwVUSQyAlZEMfEfMYq95/5wt0y5tvy31O9lb91fam5gSoPwxRRoWoNxVqjfwxVV/wCcx/Nb&#xA;6V5C0vSIwHOr6gjXET14SW9mPVaNqEGhlaLvir5p1L8/vzhv7xrp/NN7bkmqw2rC3hUdlWOIKtB7&#xA;4q99/wCcY/z488ebNbk8r+Z431SMQvLba2kNGiZBy9K5aNRHxZa8GNDy2+LkKKs3/wCch/zxH5b6&#xA;NBZaUsc/mjVATaJIOUcEKmjXDr+18Xwovc1P7NCqo/8AOL35oa1568l3y6/cG71rSrto5roqqmSG&#xA;cGWJmCBVBB5pQDooxV6L5/8AN9p5O8m6t5muk9WLTYDIsINPUkYhIo69ucjKtcVfAXnL86PzK83a&#xA;hJdanrlzFC7Ex2FpI9vaxjsqxIQDTpyareJxVL/Lv5m/mD5duo7nR/MF9atHSkfru8JA6B4XLRsP&#xA;ZlxV9w/kB+amo/mL5LOoapYta6lZSfVrmdUZba5IFRLCxHH2dQTxPsRir0zFXYq7FXYq7FXYq7FX&#xA;Yq7FXYq7FXYq7FXYq7FXYq7FXzX/AM5Bf85La15S832/lnyl6Jl0x4p9buJVEgkJo/1MVrxUoR6j&#xA;L8W9AVINVXvXkzzXpnm3ytpvmPTDWz1KFZUQkFkb7MkbU/ajcFW9xiqbPa20kqyyRI8qfYkZQWWm&#xA;+xO4xVUxVB6vo2kazYSafq1lDf2MwpLbXMayxt81YEYq+e/PH5B+Z/It7L5y/Jm+uLKeKsl75dDG&#xA;VJY13IhV+Xqj/iqSp/lNaDFXn+ufmfoX5y+cfy10zzJY/V2hvLiw1zT1Z442kuzAiPFIpV1WRkA4&#xA;8uSkU36lV73p3/OL35JWNytwNA+sOm6pc3NzLHX3QycW/wBkDir0vS9J0vSbNLHS7OCwsoto7a2j&#xA;SGNe2yIFUYq+Bv8AnJjWrnVPzo8wGZiY7F4rK3Q9EjhiUED5uWb6cVZP/wA4x/mh5a/L3TvOOpa7&#xA;cEJOtgtpp8QDXNzMpuKLEppsoY8mJCioruRir2rT/KH5g/m/bG//ADCkl8ueSrjjJYeT7NuFxOoI&#xA;eOS+mK86AgMEoN9+K03VY3f/APOEHlqS7Z7DzNeW1oT8EM1vFO4/56K0IP8AwOKsu8nf84mflV5f&#xA;lS5v4Z/MF2hDD9IMPQBH/FEYRGHtJyxV7Jb29vbQR29vEkMEShIoY1CIqjYKqigAGKqmKuxV2Kux&#xA;V2KuxV2KuxV2KuxV2KuxV2KuxV2KuxV2KvzR/M25nuvzH80zzsWlfVr4sT7XDgD6Btir6d/5wl8x&#xA;XF35U8waDIS0elXcNzAT+yt6jgoPblbFvpxV9I4qhdW1Oz0nSr3VL1/TsrCCW6uZP5YoUMjn6FU4&#xA;q+NvIH/OQPnDXvz+0nUtQu5U0fVbr9Fw6Orn6vFb3bCOFeA+Eusnpsz9SR4bYq+08VfKf/OUf5XD&#xA;y3rVl+avluAR+neQyazbqKItysgaG6oOgkcBZP8AKoerHFX0b5D856V5z8p6d5j0tv8ARr6MM0RI&#xA;LRSr8MkT0/aRwR+PTFU/xV8bf85h/lzbaT5oh85215Cq6+ViuNOZqT+vBGqNNGv7UZQLzPZv9bFW&#xA;Sf8AOMf5B6bCtn5181elNqLgT6LozlWMK9VuZk/34eqL+z9o/FTiq+pcVdirsVeA/nh/zk/H5H8y&#xA;Q+XPL1pDqV/ayRya1NMT6caEhjbx8SP3rJ1Y7JXoTXiq900rUrXVNLs9TtG5Wl9BHc27HqY5kDod&#xA;q/stiqKxV2KuxV2KuxV2KuxV2KuxV2KuxV2KuxV2KuxV2Kvif/nJr8k/MmkedNR816PYTXvl/WJG&#xA;vLiW3QyG2uZDWcShakK71cORT4qdRir0r/nCnyvdWPlHXfMM3wx6zdRQW6VH2LESAvt0q87Lv/Li&#xA;r6OxViP5uaNqOtflj5m0vTVZ7+50+dbeJN2kYJy9NfeSnH6cVfDX5DeWdU1z83fLVvZxMTp9/BqF&#xA;41No4bKVZnL+FeHEe5AxV+ieKpX5o8u6f5k8ualoOoLys9St5LaXapUOtA6/5SGjL7jFXyt/zip5&#xA;1u/KXn/V/wAtdak4R3dxNHbqxoseo2hKSIK9PVRCPmqjvir6v17W9N0LRr3WdTmEGn6fC9xcynsi&#xA;CpoO5PQDucVfnf8Aml518z/mD5gu/OOoW8yaU0xstP8AhY29vGg5x2wkpw9Ti3NvEknFWGRSyRSL&#xA;LE7RyIQyOpIYEdCCOmKvqX/nFf8AOnz1qnmBfJ+ufWtb0ySNjb6myPNJZsillE82/wC6cKVBfcNQ&#xA;A0xV9WYqgde1NdJ0PUdUZeS2FrNdMviIYzJTb/VxV+YWpajeanqN1qN9KZry9me4uZm6vJKxd2Pz&#xA;Y4q/SD8prW6tPyv8pW91X149IsQ6t1X/AEdPgP8Aqj4cVZXiqV+ZfM+geWNHn1nXr2Ow023FZJ5T&#xA;37KqirO7dlUEntirXlbzPo3mjQLLXtFn+s6bfp6kEtCp2JVlZTuGVlKkeIxVNcVdirsVdirsVdir&#xA;sVdirsVdirsVdirsVdir598/6T5u/J7zPe/mD5LtjqHkzVJPX81+XKkLDKT8d1DQH0w3UsAeJ6gp&#xA;Tiq9S/Lr81/JX5gacLry/fK9wi8rrTZqJdwf8ZIqn4f8paqfHFWYYq810JdM0T89vMOmRW0Nu/mL&#xA;RrLVonjRELy2s89vcAlQpZ29RGPXxxV84f8AOQn5sfnVb+cr3RL6a68saXE7DT7WxkaJZ7cMQsxu&#xA;U4vNzHXfiOnEGuKvKNJ/Mr8wdIuhc6b5k1K3lBqeN1MVb/XRmKOPZgcVQ1/5y16983HzbJMseum5&#xA;jvjdQosY+sxlWEoRfhDF15GgpXtir6B/5yP/ADkHm3yP5Q0PQCxbzNDHqWo20VWaocwx2u32qXKS&#xA;VHii4q+gPyz/ACx0fyr+W+n+Ury1gvFMXqavHMiSxT3MtGmLKwKsob4Vr+yBirS/kZ+UC3P1geUd&#xA;N9SteJgUx/8AIs/B+GKskkk8reVNHLubLQtGgZVLfurS2RpGCL/Ii8mIGKpojo6K6MGRgCrA1BB3&#xA;BBGKqd5aW95aT2lygkt7mNopoz0ZHUqwPzBxV8g/lf8A84t2uu+a77U7vU0uvJOk6pcWlsFUie/F&#xA;pJxP+QsRb4GYMS1GoBs2KvsMAKAAKAbADoBiqhqF/Z6dYXOoXsqwWVnE9xczt9lIolLu5p2VQTir&#xA;89fzo/ODWfzI8zSXUrPBoVozJo+mk/DHH09RwNjLJSrHt0GwxV9P/wDOHJu/+VQt65JiGqXX1Wtf&#xA;7vhFWlf+LOfTFXuWKuxV2KuxV2KuxV2KuxV2KuxV2KuxVZNNFBDJNM6xwxKXkkYgKqqKliT0AGKv&#xA;kX8yv+cx/ME2qzWXkOCG00uFiiapdRerPPQ05pG/wRoewZS3y6YqzX8jvzs/N3zzompRv5cs9Zms&#xA;nSIarJP+jrcmRSTHKoiuPUcUBIjUbEVpsSq83/OT8n9Z8oXH+OY9Q0PybcM5a203Sru+5vOKkmz/&#xA;ANHRlahFVUKi+KjFUF5I/wCcv/zH0NI7bXYoPMlmlBzn/cXfEbUE8YKn5vGx98VZD5s/5yX8o6z5&#xA;s8k+cdMtrvT9U0G6lt9Xs50Vll0+8VVm4SRsQ/phTxDAGprTFX0hf2X5a/mZoRtZzp/mTS2+JTFI&#xA;kxjYinJJIm5xPQ0qCDirxnzB/wA4SeVbq4aTQvMV3pkTb+hcwpeBd+isr2zU+dT74q8o/P38gtO/&#xA;LLRNCvbDULjUjfTTwX88ypGgdVR4RGi141USVqxxVBf84t+UY/Mv5uac9zR7TQYn1V42PVoGVYQo&#xA;P8s8qP8ARir72xV2KvmD/nNzzPPFpvlzyzC5WK6km1C8UbV9ELFCPcVkkNPYYqiv+cNvzIv9U0rU&#xA;PJWpTNM2kRrdaU7nkwtWbhJFU/sxuy8f9anQDFXqf50+eb3y55bh0vQzz83+Zphpfl6BTRhNMQj3&#xA;HeiwK3Ll0rSu2KviLXfyr/NfRdTaxvvL+qNNaMwhmggmnhPxFuUMsQZCCTX4T+OKvpT/AJxjsPz9&#xA;tLll81rcReUPSYRw6yX+uLJT4Pq6v++Ra/aElFp9nfFWb/8AOTes29h+TmvW31yG2v8AUEht7OCR&#xA;wsk/K4j9ZIk+059Ll0+nFXxF5G/L7zX531mLSvL9jJcyOwE1zxYW8CnrJNIAQij7z0AJ2xV+iP5f&#xA;+TbDyZ5O0vyzYt6kOnQ8GmIoZJWJeWQgdOcjM1O2KsgxV2KuxV2KuxV2KuxV2KuxV2KsX/MzVPOm&#xA;l+S9Rv8AybYRalr0CcoLaUsfgH22SNaeq6ruqVFff7JVfEF1/wA5GfngNSeeXzLcQ3MbFWg9G3RF&#xA;IJqph9Lhsdt1xV9C/kB+d835pWmqeSvOVtHLqJspTJcQ1hS7tHpDMrqhXhIPVH2KVB2A47qsst/+&#xA;cXPyPhuvrA8vF6UKwyXd48YI/wAkzb/7KuKvStI0bSdG0+HTdJs4bCwgFIbW3RY41HeiqAN+574q&#xA;+Bf+cjPOeo+ZvzY1xbiRjZ6Ncy6XYW5PwxpauY5CB4ySqzE/wAxV7H/ziz+RF5aGfzj5v09Viu7d&#xA;rfStLu4wzNHLT1J5YnGwZRxQMNwSaU41VZ950/5xR/KnzF6k9hayeXr59xLp7Uhr7278owPZOOKv&#xA;DPM//OKv5teULr9KeUrz9LpASYrjT5GtL9AP2vSLD7o5GPtiqG8rf85Q/nB5Mvv0Z5mibWIrc8Li&#xA;x1WNre9QDt63ESBveVXxVm35xfnD5C/NX8l70afMbHX9JuLa/wD0Nd0WY0f6vI0LD4JQqTsfhPLi&#xA;KkDFXjn/ADj55rPln83PL9478bW7n/R93vQGO8Hogt7JIyv9GKv0OxV2Kvk//nN7Qr7695Z15UZr&#xA;H0p7GWQV4pKGEqA9gXUtT/VOKsF/5xX82+VvKHnHWdf8y6pDptgmltaJ6nJpJJZriKQCOOMO7UWB&#xA;q0G23jirJtE/5yJ8kTfmVqX5hea4NQurq3VrHylpFrFG62dqQQ00jSSxr6soYg8a0q3X4aKspvf+&#xA;c2tPklEGieULq8mkPGFZrlY2JNafBFHOT8gcVYH5w/5y7/Nu4lmsLSztfLUkZKyKIGku0PdWNzyQ&#xA;f8igcVZh/wA4yH8u/NeutrfmLVLrXfzLiBkji1ghkjRNw9kCziQoO5NV6qqjfFX1PirsVdirsVdi&#xA;rsVdirsVdirsVdirz3z9+fX5ZeR7h7PV9U9fVI6c9Msl+sTrXf46EJGfZ2BxVhmlf85kflLe3qW1&#xA;xBqumxOaG7ureJol6faFvNPJ9yHFWZeZvyh/KL8x4Ytcu9Nt7x7yNZIdZsJDE8qkfC5khIWXbb4w&#xA;2KpRbf8AOMf5aaZp8i6Al5pGuBhLZeYYLmU3lvKteJSrcOO5DLx+Idd6EKr/AMvPzU1iLzTN+XH5&#xA;hLHaecbUctP1GMBLXVLcfYli6cZGAJKAdj0IKhV6virBdN/JL8trDzff+bhpKXOu39w9209yTKkU&#xA;sh5O0MTfApL1blQsCdjirHf+ch/zU88flzo+m6r5e0uzvbK4maC+urwTSCF6AxLwieGgf4viLdRS&#xA;m+KvN/y+/wCc0PrepQ2PnjSoLO2nbidU0/1PTiJNAZIJGlbj4sr1H8pxV9RRSxSxJLE6yRSKGjkU&#xA;hlZWFQQRsQRirG/On5d+SPO9m1l5j0yC/MY4xz/ZuISd/wB3MlJE61pWh7g4q+SPzk/5xZ8w+T4p&#xA;9a8svJrfl2MF54+I+uWqDqZFXaVB3dBt3UAVxV4VHI8ciyRsUkQhkYbEEGoIxV+nPkvzAnmLyhou&#xA;urT/AHJ2UF0wHZ5Ywzr/ALFiRiqTfmZ+bPk/8u9KF7rtzW5mB+paZDRrmcjrwQkUUftO1APnQYq+&#xA;OPzK/Prz9+aU40FEh07RLmVfQ0mIoAzK3JGnuZeNeJ3JqiDqR3xVnH5cf84gLrVul95j8zWyxGhe&#xA;x0Z47qQBgDR7klolb/VRx74q9t8vf84xfkzoqqf0H+kp16z6hLJOTTxjqsP/AAmKvRNI8ueXtFj9&#xA;PR9LtNNjpThZwRQLTwpGq4q+af8AnKH8gNZ1HVZ/PflS2a9edV/TWmQrym5RrxFxCo+2CqgOo3r8&#xA;W9TRV8v6Rq2q6FrFtqenTPZ6np8yywSrsySRmu4P3EH5HFX6W+S/MI8yeUdG18R+kdVsoLtohWiN&#xA;NGHZBX+ViRiqc4q7FXYq7FXYq7FXYq7FXYq8N/5ym/ODUPJPl210TQpTBr2uiT/S02e3tUoruh7O&#xA;5bip7fEdjTFXw/JJJLI0kjF5HJZ3YksWJqSSepOKroIJp5kggjaWaVgkcSAszMxoFVRuScVfW/5b&#xA;/kT+dth5DsktvPVx5XuJOcyaB6PqxwrKeSh35go7GrOoU0r41xVfqPlT/nMnQfj0vzNba9EvSNDa&#xA;mRlBrRhewR7/AOq/04q8g/Nrzh+dt5+jJfPOhtpuo6LOJtO15bOS2mVgR8K3EZ9BlLhW2GzDandV&#xA;675T/wCc2PL00cMHmjQrqzmCqsl5ZOlzGzUozmN/QZATvQcsVe0+Tvzd/LjzjwTQNdtrm6cbWLsY&#xA;LnpvSCUJIadyoIxVkOu6FpOvaRdaPq9ql5pt7GYrm2kFVZTv23BBFVI3B3G+Kvkzzh/zhZ5qh1SR&#xA;/KWq2l3pUjExRX7PDcRA9FYokiSU/m+H/VxV7Z5O8/6V5X/IxNU1NpDc+T7MaXq9nLRZk1CyVYPq&#xA;3Vh8chQRt3VlOKvmz8jvzZ81y/nvb6nf3jzDzZd/VtWt6n0m9YFYOKkkD0W4hPBfh6HFX3NJGkkb&#xA;RyDkjgqynoQRQjFX5b6pZPYand2L7vaTSQMfeNyp/Vir6u/K/wDPDS/Jn/ONdpqF2VudVsLm60vS&#xA;7En4pp+f1hOQBqI4o7hS5/loOpFVXzRqnmK+85ebm1bzbqzo99KDeagY2m9GIfsxQqRso2RAQPl1&#xA;xV9bfld5F/5xb8zaRFpvl+3tNavLeP8A0j66ZY9Qf+aRkf0mpU9Y14jFWUXf/OMf5QO4n07TbjRb&#xA;5f7u+069uopUPivOSRAf9jirDvzW1X82fyc8q/pPSfNB8yaPc3CWUa61bie+tGkR3WUXMbRib+74&#xA;/vF6kbYq8u8n/wDOYv5i6fqsbeZY7fWtKdgJ4kiS2nRa7tE8YVCR4Opr4jrir7D8seZtF8z6DZ67&#xA;otwLrTb5PUglAoetGVlO6srAqwPQ4qkXm/8AJ78tPN8rz6/oFtc3bijXiBoLg+HKaExu1P8AKJxV&#xA;kWg6Jp2g6JY6LpqGOw06CO2tUZixEcShVqx3JoOuKo/FXYq7FXYq7FXYq7FXYq7FWA/mN+SHkL8w&#xA;b+21DzFBcNeWsP1eGW3naKkfIvQrup+JiemKsNt/+cO/yfik5P8ApKdf99yXShev/FcaH8cVZ/5N&#xA;/J/8tvJsgm8vaFb2t4ooL2TlPciooaTTGR1r3CkDFWY4q84/N389PKP5a20cd9y1DW7hC9ppEDAO&#xA;VrT1JXNREldgSCT2BoaKvC7b/nNrW5NRK6l5Xs5NGkbjJbxSyeuIzsfjcGNzTtwFfbFU5856P+VP&#xA;ni1W80b8q/M3r3aLJBq2l2C6dE/qiqsC7GGQHqXMRHeuKvDtX/JD8zrW+l+oeVNae1X44We1JlA6&#xA;0PoGVSR7HfwGKp55K/5yM/NryJdfo6+uJNUtLZvTn0rWA7Sx02KrK1J4yBsASVH8uKvqP8r/APnI&#xA;78v/AD4YbITfobX5Nv0VeMBzbwgm2SX2Gzf5OKvFv+cxNM1LQtbiuLCVodF83rFLqtsv2JL7SwUW&#xA;Q+FYrhPmVr22VYx/zip+WmreYPzBs/Ms1s6aBoLNcPdMtEkugpEMUbH7TKxDtToBvSoxV9yYq/Nf&#xA;82bMWf5o+bbYU4prF8UAJNFa4dlG/scVQvkfyl5h86+YtP8AK2kcpJbmVmUMT6MCsF9adx0UBIxy&#xA;PU0A3NBir3Tzd/zhT5kgu1fylrNreWRVecWol4J1cABqGNJEZSan9mnTfriqb/lh/wA4heaNF8x6&#xA;fr2u+YorGTT5kuIodJLvMzKa8TNKsaoD0b4GqNu+KvoTz5+YPlXyLobaz5ju/q1ty9OCJRzmmkIq&#xA;I4oxux/AdSQMVU/M2geW/wAx/IU2nTS+vo2u2sc1rdxfaAcCWCeOvdTxYV+RxV8CfmV+VHnD8vdX&#xA;ax1y1JtXalnqkQZrW4HUcHI2anVG+IfLfFXvf/OEXmW+dPMnlqVi9lD6OoWqnojuTFN/wYVPu98V&#xA;fU+KuxV2KuxV2KuxV2KuxV2KuxV2KuxV2KuxV2Kvzl8x6R+Zvn3zhqWtHQNUvL7UrhpSiWs7+mjE&#xA;iOOvEhUjQBRU9Bir1T8p/wDnEXzLqGo2+p+fEGl6PEwkbSldXurihqEcxkrEh/a+Ll2oOoVfYcMM&#xA;UEMcMKLHDEoSONQAqqooFAHQAYqvxVhH5kfk55F/MG0Ka5YhdQVOFtq1vSO7i8PjA+NR/I4K+2Kv&#xA;jX82/wDnHzzn+XUjXrL+lfLpakWr26kenU/CLiPcxN71K+DV2xVI7n82/N2q6Touja9d/pO00O/i&#xA;vbC4uR6s8axijRM53kQ7bPU7UrTbFX6D+VfMXlzzDodtqnly7hvNJmX9xJBsq06oyUBRl7qwBHcY&#xA;qm2Kvzu/5yDt2g/OfzWhABN56m3SkkaOP+Jb4q9K/wCcJLmJfPWv2pVTLLpYlViByCx3EasAaVoT&#xA;IK/Rir7HxV2Kvzt/PP8AMq78++f7/UPVY6RZu1po0FfgW3janMDpylI5t86dAMVfYX/OMk1xN+Rv&#xA;ld52LOEukBbrwjvZ0QfIIoAxV6PqOmadqdnLY6law3tlMOM1tcIssbjwZHBU4q83sU/5x+/K7VdR&#xA;vbS90zQdQvVWO9t1uy8lI2JAW25yMm534IMVeWfnr/zlRcWwtdJ/Lm64rcRetda49u6mhZkEdulz&#xA;GoP2STJxI/lNQcVeK6X/AM5EfnNp139Zi80XU55cmiuuFxEa9RwlVgB/q09sVfT35E/85KWHn64X&#xA;y/r0MWm+aOJa39IkW92FFW9IMSySKBUoSajcHqAq9wxV2KuxV2KuxV2KuxV2KuxV2KuxV2KuxV2K&#xA;qGoX9np1hc399MtvZWkTz3M7mipHGpZ2b2CiuKvkfzz/AM5oeZZ9Rmg8madbWemRsVivL5GmuJQO&#xA;j8Ayxxg/ynkfftiqeflJ/wA5gNe6idM/MRbazgdC1vrNtHIqqyivCeIGT7XZkHXYjeoVezQ/nd+T&#xA;OpxtbHzVpbxTrwkjuZViRkcUKv64RaEHcH6cVeAfnF/zjjoeo29z5r/Ki4t9St1rLfaDYypcADu9&#xA;n6bPX/jF/wAB2XFXjn5Y/mt5s/LjXfr2kSlrZ2C6jpUxb0J1G1HX9l1/Zcbj3FQVX3p+W35l+Wfz&#xA;B8vJrOhzH4SEvbKSgnt5aV4SKCev7LDY/fir4h/5yR/8nb5p/wCM8P8A1DRYqyr/AJw2uvR/NyWP&#xA;lx+s6VcxUpXlSSGSn/JOuKvt/FWLea/zN/LzyyJIdf8AMNnYTUIe39YG5FR1EUXKUfMLir83LiC2&#xA;jv5II7lZrVJWRLxVcK8YagkCMFcAj4qEVxV9Y+XP+crfyp8p+SLXQdD0vVriTR7VLezjuIreBLiR&#xA;R8TtIk0xTm1XY8O+wxVi2k/mbbfmffFvzC/Mc+VdKkY+l5Y0qK4tlKVpSe8aMxmo3+Jn/wBj0xV9&#xA;C/l1+XH5OaVYxXvk7T9NvEFOGqxsl9KT4i5YysK+CkDFVf8ANT8oPKX5kaVHaayjQ3ttU2Op2/ET&#xA;wk9VqQQyN+0h+ih3xV846v8A84Sed47oro+v6Zd2tTxkuxcWslO1UjjuR/w2Kovyh/zh9+Zmj+Yt&#xA;O1eTXtKtJNOuYbqKW2a5mflE4f7LQwDt/Nvir67xV2KuxV2KuxV2KuxV2KuxV2KpD54866D5L8tX&#xA;fmHXJTHY2oA4oA0kkjGiRxqSOTMff3O2KvlLzB/zmp58uL5zoWk6fYaeCfSS5WW5nI/y3V4k+gJ9&#xA;JxV6p+Tv/OU3l3zVaXFv5ymsfLmr2xTjK83o2lwrkisZmY8Cp+0rOfGvWir2+w1HT9RtUu9Puoby&#xA;0k/u7i3kWWNvk6EqcVXXlnZ31pNZ3sEd1aXCGOe3mRZI5EYUZXRgVZSOoOKvLNZ/5xa/JfU7g3A0&#xA;Z7CRjV1sriWJD8oyzIv+xAxVin5i2X5ff84/+TJNR8oaTGnmvWCbLTr26JuZl+GsstZS1FRf2VAB&#xA;YryBGKvj8nW/MWtivralrGpTBVG7yzTSGige5OwGKvsuD/nEbyK3l/SvTuL3RfM9tawreanp9wxD&#xA;3axgSycJOYAL1NEK4q8e/Mb/AJxP/M/S3u9XsLxPNcXxz3Eys0d81KszvFKzc2P+TIzHwxV5p+WH&#xA;5la/+XnmmHWtLctFUR6jYMaR3MFatG3Wh7q3VT9IxVU/OLzTpXmv8yda8w6UXOn6i8MsHqLwcUt4&#xA;1ZWXfdWUjFUz/IXz7onkTz5/iLWRK1rb2VyiQwLzkklkUBEWtFFfFiBirL/MP52fnd+berPonlG2&#xA;ubGxc0Gm6SWD8DsGurz4CFPQ1KJ4jFUfB/zhd+Y02jNeT6rp0Orn4l05mlYEdSHuFUgP7BSP8rFU&#xA;D+Xt7/zj/omry+XfzE8sNDrNhM1tcawt5Nf2TSRNxYtHAyhRyHZX96b4q+m9F/Kn8i9V02G90jy7&#xA;ouoafKKw3UMUU6MP+Mg5VP04q1qP/OPP5L6grCfyraR8u9sZbY+G3oPHTFWG3f8AzihoWnXh1PyH&#xA;5l1Xypqg+w8cvrw068SAYpSD35SEe2KsM85/85DfnD+V2rL5U8y22k69qMUaXEerIs0fr28lQpdE&#xA;9JVkqpBooHz6lV6x+Sn59aB+ZltNbCA6Z5hs09S601n9RWjqF9aF6LySpAIIqvvsSq9RxV2KuxV2&#xA;KpFdeefKVp5rtPKdxqcMfmG+iae208n42RPwDEVKqTUgGnTFU9xV2KuxV5h52/5yE8k+UvPmmeTr&#xA;z1Jru7kjTUbqMr6VkJv7oy13JJKlgPsqeXtir0/FXYqkXnPyN5W86aQNI8y2Iv7BZBOkReSMrKqs&#xA;qurRMjAgOR174q8luP8AnDT8pZbgSx3Or26A19CO5hKH2rJA7/8ADYqxz80PNP5Sfkvosnkny35a&#xA;stX1q/RZr2C/H1mJARRJLtpOTuzAkpEpWgNfhBHJV85+VPOvnWw83R3Xk+dtI1LUbiNI7HT+S2zy&#xA;SNxSMwMZFdeTbKwIxV9j/l/+eF6/mAeRvzJsF8uedFots/SyvgdlaByWAZ6bDkVY7A8vhCr1/FXj&#xA;f/OQX5Ia3+aF35b/AEfqVvp9tpRuxePcB3bjcejxaJEHxN+5NQzL2xVF/l1+SX5aflLZtrd5dRS6&#xA;nGtJ/MOpvHAkQYcWEIYiOFWH+UW7cqYq9SsL+y1Cxt7+xnS5srqNZra4iYMkkbjkrqw2IINcVeLf&#xA;85R/nFqvkXQLHSfL8v1fXdaMh+tgAtb20VA7IDtzdmCqewDd6Yq+NbTQfM3mG11rXoYptQTTFW71&#xA;m6JLyKJ3I9Vyas1WqWPzPSuKpLir0j/nH/yFoPnj8yLXQ9dErad6E1xJHC/ps5hUEIWoSFNd+ND7&#xA;4q++fL3lny/5b02PTNB0+DTbCP7MFugQE0pyYjdmPdmqTiqNvBObOcW/9+Y3EVCAefE8dz74q/O3&#xA;8kdOuL/84PK9mYTM51BGuYXFaxxVecOp6j01bkDir6e/Ov8ALg+TPJ2s+b/y0lu/LepRKr6pY6XK&#xA;YrSa3Zgssv1YApG8SnkGj48QDir5y8k/85Ffmr5X1aO8k1y61uzLD61p+qTyXUcidwryl3iPgyHr&#xA;1qNsVfdfknzho/nHyvYeY9IctZX8fNUanONwSskTgV+JHBU4q8s/5yW/Iy7/ADA0621zQQp8zaVE&#xA;0S2zEKLu35FxEGYhVdGLFK7GpB7EKvlD8t9S17yR+a2hzzQTWOoWWoRQXtpMjRy+lM4imiZH4kco&#xA;3I3xV+jN3d2tnay3d3MlvawIZJ55WCIiKKszM1AAB3OKvM/JX/OQ/knzl5/m8o6Gk8ojglmh1RwE&#xA;hneFhySJD8dOJLBmA6HbFXqOKsV/M/z3aeRfI+p+ZbhRK9pHxtLdjQS3Mh4Qx7b0Ln4qdFqcVfni&#xA;3nPzDL5xTzfcXbza4t4l+bpj8RmjcOvyA4gAdANumKv0a84efPKHk3Txf+ZdUh023eoiEhLSSFeo&#xA;jiQNI5HfipxV5ef+cwfyeF16AfUTHWn1oWv7unjQv6lP9hir03S/P/lXWfKlx5p0W/i1HSLaGWaS&#xA;WI0K+ihkdHVqNG4X9lgDir829e1rUNc1q+1nUZPVvtRnkubh/F5WLGngBWgHYYq/SX8vdRudS8ge&#xA;WdRuiWub3SrG4nY7kyS2yOxP0tirIMVdirsVfFHmX/nG/wDO3zj5813V7nT4bOHUL+4livLy7i4G&#xA;JpWEdFiMs3FUChax9KYq9r/Jn/nGPQPId7Fr2rXQ1nzHED9XcLwtrZmFCYkNWd6GnNvoUHFWcfmt&#xA;+Vfl/wDMXy1JpeooIb6IM+l6mq1ltpqbMOhZG/bSu49wCFXn/wCRH5pa9HrV3+Vfn5inm7ReSWF5&#xA;I1TewRjlQsac3WOjq37abncElV7TrGrWGj6TearqEghsbCGS5uZT+zHEpdj9wxV+d/5tfmz5h/MX&#xA;zJNqF9K8WlxOw0rS+X7u3i6DYbGRgKu3c+1Bir7P/wCcar2W8/JDytNJXksVxAKmvwwXc0K+H7KD&#xA;FXj/APzmF5I8za15z8q3Gj2E1+b+3fToI4ELn6xHI0vFqbLVJOVTtRWPQHFXsH5H/k5Zfl/5HfSr&#xA;9YrvVtWHqa69A8bkqVFuKj4o41YjfqSx70xV8A6o1o+p3b2S8LNppDbJueMRc8BvvstMVe4f84YW&#xA;7S/mxeyA0EGj3Dt71nt0p/w2KvtrFXYq898qfkh5N8s/mBrPnawR21DVSxigfj6VqZjynMIAr+9b&#xA;/gRUDbFWQ3fnryQvmSDyjcaraya7fB1TSuQkkYKhd1kVQwSqKdnpXtirwX8zP+cNrPUL2bUvIl/F&#xA;pplJd9HvOZt1Y7n0ZkDui/5DK3zA2xVn/wDzjX+X3nLyJ5O1LRfM6pHI2ovcWSRSrMnpPDGpKlfs&#xA;gsh2Pzpvir1zFUq1fyn5Y1m6tbvVtJtL67spEls7meFJJYnjYOpR2HJaMK7HFXy7/wA5j/mfqEms&#xA;Q/l/YStFp9vFHdawFNDNNJ8cMTf5EacXp3JH8oxVi3/OHmgXl/8AmudUjU/VNHsp5J5f2ec6+hGh&#xA;925sR/qnFX3Bir55/wCc12vh+XejCP8A3jOrL9YIr9v6vN6dfb7WKvmP8o/IGoeevPemaJbRM9r6&#xA;qTanMBVYrSNgZWY9Nx8K+LEDFU//ADm8tfnPqHmzUNf84aFfoZXIhkSM3FpBACTHDHND6kQVQf5t&#xA;zUncnFXmKQzSSiFEZ5SeIjUEsT4UG+Kvov8AIryD+dmheXfMGpWugifQtZtDaXOhX8zWV1dIysvr&#xA;WqurBXRWIBlADBtq4q8l8i/lT5o82ee08nrAdO1CJidSW7HpPbQxkeq5ifi7MoOygb/LfFX6MadY&#xA;W2nafa6farwtbOGO3gTrSOJQij7hir5f/wCckP8AnI/zDpXmG58meTbn6ibGiarqqAGYzMoJhhJB&#xA;4BAfiYfFy2FKbqsQ/IHzj/zkD5j80zWWh69Pe2vpMb+61tpr60txT4Gq7FlkLfYVWFe44g4q9j1P&#xA;8rf+chtTZ5NQ/NJLGFQWAsbUW6qBuamL0DQU6ljir5W80ef/ADzbaxc6fa+fdX1uytZGjiv/AK7d&#xA;rHKV2Lxq8rHiex74q9Q0byR/zlfc+XtP8y6J5kv9TtdSt47u3h/S0jSCORQ6ho7t0StDuAT9OKoW&#xA;5/O//nJzyHKq+ZoZmgU8UGrWC+ix9riFYS/0SHFWK/mH+edx5x1fQvM6aSmjecdEkUjUrSVmhmjj&#xA;b1Iw0TjkpjetPjaoYg9sVe9fm9+bXl3zp/zjvqt5oGpQPqM8NgdV02N/9IthJcQiZHjNH4hzw504&#xA;nsTir40RHd1RFLOxAVQKkk9ABir9Jvyn8sT+V/y38u6Fcrwu7Oyj+tpWvGeT97Mtf8mR2GKssxVI&#xA;PzB1ddG8ieYdVJp9S026mXxLJCxUD5tQYq/MrFX0T/zhtfaLpWu+Z9Z1fULbTrW3soLf17uZII6z&#xA;Sl/tSFV/3R44q+nIfzh/Kmaf0I/N+jmStADewKCa02YuFP0HFWUWV/Y31utzY3EV1bP9iaF1kQ/J&#xA;lJBxV8y/85L/APORep6VqNz5H8nXDWt1b0TWdXiNJEZlr9Xt2H2SoPxuNwdhQg4q8b/5xw02/wBV&#xA;/Ovy80XKRreaS8upTU0jiidmZj/lMQvzOKv0FxV8tf8AOXn5wXtpPF+X+h3DW78Y7rXLmJir/F8c&#xA;FuCKEbUkfx+H3xV63/zjt54v/OP5V6ZqOpSGfU7RpLC9nbrI9uaI7eLNEyFj3NTirJfPf5i+UPI2&#xA;ktqfmO/S1Qg/V7YUa4nYfsQxA8nO436DuQMVfOuufkD5y/OHzFd/mBdel5RttYaH6vpt4rz3Zt4Y&#xA;UhSaRF4BGdEB4E/1xV75+VX5V+Xfy48ufojSOU88zCXUNQlAEtxLSlSB9lF6Ig6e5JJVZkzKqlmI&#xA;VVFWY7AAdzir508z+aP+V3/mLa+QfL59byDokyXvmfU0rwuzC3wwxuP2Gb4VIPxbsNkBKr3Lyv5L&#xA;8qeVLNrPy7pVvplu5BlFugVnI2Bkfd3I8WJxVOsVdirsVfM3/OQ/5j/klc3axx3d1J560pqWGu6E&#xA;q+rZzRmoSWdniSRQ1aorMQa/ZNcVRn5If85V6frgg0Dz3LHYayaR2+snjHbXJ6ASgUWGQ+P2D/k7&#xA;Aqs0uv8AnGP8rdS816j5m1iC61S61O5e7ltppylsryHlRVhETkV7M5+7FXpWiaBomhafHp2i2EGn&#xA;WEe6W1tGsSVOxYhQKsabk7nFWCf85H63f6N+S/mS6sSyTyxRWhkX9mO6njglNe1Y5GX5nFXyb+Tf&#xA;/OPnmvz9qNvd3lvNpnlRWDXOpyrwMqDqlqrfbZunOnFfc/CVX3W7aP5a8usxC2ejaLZk0AJWG1tY&#xA;uwFTRI0xVKPKP5ieQfPdlIfL+qW+qR8aXNmQVlVTsfUt5QsgU9KlaHFWF+fP+cX/AMrfNSvNbWP6&#xA;A1JqkXWmBYoyf8u3p6R/2IU++Kvlz80P+ccvzA8hCW+MP6Y0GOpOq2SsfTXp/pEO7xe53T/KxVJf&#xA;yX81eSfK/nmy1jzbpkuo2duwa2aJgRbzA/DO0JH77h1A5CnXcgDFX6EeX/MWh+YtJg1fQ72LUNOu&#xA;RWK4hNVPiCOqsO6sAR3xVMcVeQf85W68NJ/JnU4Q/CXVp7awiIND8UnrOPpihcYq+CsVdirsVTjy&#xA;15v80eWL4X3l/VLnTLkEFmt5Coem9JE+w6/5LAjFULd3l1rWtTXuo3Si71K5ee8vJQQnqTuWkkcR&#xA;qxA5MSeK/IYq+5/+cc/yk8s+S/LZ1ew1K317VdXRfrOr2jB7cRg19C3PXgG+0TQseoFAAq9fxV+c&#xA;v56G9P5webvrgIm/SU3Gta+lX9z1p/urjTFXpv5P/mx5ysfI1l5B/LHy/JqXmaaSe51PVJ1Bt7dp&#xA;34oyrUJRYwn7yZgvLbi2Kvafy4/ID6jrC+cfzE1A+avOjkSJJMTJa2rDdfRRwOTIfsniFX9lRSuK&#xA;vZMVSjzR5u8teVdKk1XzDqEOnWMf+7Jm3Yj9mNBV3b/JUE4q+N/zv/5ya1rzsk+heWll0vysfhuH&#xA;Pw3V2tR/elSfTj/yFO/7RNeIVSX8pv8AnIrW/wAuNL/RNhoOm3VjLKZ72ZhPHeTudhzm9R0AVfhU&#xA;CKg+ZNVX1R+Vf/OQ/kT8wpU0+3d9K18gkaVdleUnEVPoSj4ZaDts3U8aCuKvUcVdirwL/nLj80NQ&#xA;8seV7Py3pExg1DzD6ourhDR47OMBXVT2MzPxr/KGxV8WW9vcXM8dvbxPNPKwSKKNS7sx2CqoqSTi&#xA;r6o/JP8A5xVguvLWpXv5h2bwXWrQiHTbINwubNKh/rB2PCYkDipGwqGHxEBVx85/md/zj3qdrofm&#xA;Rx5o8h3DFNLuuYW6jjXqsfIllKL/ALqeqfysN8Ve/eQ/zQ8keerEXXlzUo7l1XlPZP8Au7qH/jJC&#xA;3xDfbkKqexOKsnnt4LiIxTxrLE1OUbqGU0NRUHbYjFV+KpX5q0Ua75Y1fRGf0xqtlc2Rc1oouImi&#xA;rt4csVfmtb3XmTyh5lMlvLPpOvaRcPGzISksU0TFHU/SCGB2I2O2Kvvn8lfzVh89/l1F5i1AxWd5&#xA;ZM9rrJLBIUmhVWaQFj8KOjq+/StO1cVeffmt/wA5ceWNDSbTPJax69qu6Nfmv1CI06qRvOf9Wi/5&#xA;XbFXzx5K/J78yPzQm1LW9LsoY7ess73kqrZ2005JPoW6xoI+RPZQEX9ojaqqh+Xv5leefyk81zxx&#xA;JJEsUvo61oNzySOTgaMGU/YkFPhkAqPcVBVfeHkHz95c89eXINe0Gf1beX4Z4GoJYJQAWilUE8WW&#xA;vyI3FQcVfOf/ADm95lDXflryzG/92k2pXUdf9+EQwH6OEuKvlrFX3N/zi/8Al15asvyu0fXLrSbW&#xA;XW9T9a4kvZYUeYRmZ1iVXcFlX01U/DTrir2DVtC0TWLc22rafbahbsKNDdQpMhB/yXDDFXgn5q/8&#xA;4h+WtXt5tR8jFdG1YAt+jXZmspj1oteTQse1Kr24jrir5D1vQtY0LVrnSNXtJLLUrNzHc20ooykC&#xA;vbYgjcEbEbjbFU28lfmN508k331vy1qk1iWIM1uDzt5af79hesbbbVIqOxGKs/8AM3/OWH5v63bL&#xA;b295b6LHxCytp0PCRzTc+pM0zrU/yFcVRX5eeW/yO1u9Gs/mN5/m1DVZmD3NjJHdwh2A/wB3XsqM&#xA;8goKfCVPTfFX0zoP5n/84/8AlnR4rLQ9d0bTtOWnG3tXVSSR9p1Ucyx7s2/jiqXa3/zlb+S2mIxh&#xA;1WbVJV/3TZWsxP0PMIY/+GxV5F50/wCc1dbukktvJ+jR6crVC39+wnmp2ZYUpGjf6zOMVYD5W/Lz&#xA;84fzt1tdV1C5uJ7EsVm17UCwtolr8SW6Cisdv7uIUB68euKvqny//wA46flvpPkO98otaG6TVI1G&#xA;p6q9Fu5ZEPJJEeh9P03FUUfCO/Kpqq8J8xf84UedILuQ+X9asL6yqTGLwy204BOwIRJozQdTyHyx&#xA;VkX5cf8AOG1/put2mq+bNcjIspVmis9IaVWZ42DITcusLpQj9lK+DDFX1JirsVYt5w/K7yF5yura&#xA;68zaRHqU9ohjt3keVeKMeRFI3QHfxxVFeW/y/wDJHlk8tA0Kx02Uihnt4EWUjwMtOZ+k4qrec/M1&#xA;t5X8qat5huUMsWl2styYhsXKLVUB7cmoMVfm/wCZfMvmTzn5km1XVZpNQ1fUJAqqoLGrGiQwoK0U&#xA;V4oi4q+l9B/5xAkbyZoupQa1deXvPkcX1i5lQl4kldi6J8BjkieNCqMyOdwdjiqLTVP+cuvIH7m7&#xA;sIPO+lxbLPGPrMvEfymL0Lot7vG2Ktn/AJzF1DS2EPmfyFe6ZOPheszIS1D/ALrngiI6dORxVZcf&#xA;85weX1jrb+VruST+WS5jjWlP5gkn6sVeH/mZ5vuPzY8yLrOi+TpLLUmHp3RsWmvXuOIAQyBIkHNV&#xA;oOQUVHXtiqZ+VP8AnHn89desBpq2E+j6JLL60kepzNawerQL6jWtWlLcQPi9LFXun5d/84eeTdEe&#xA;O982XLeYb5aMLQAwWSt13UH1JaH+YhT3XFXvtra2tpbR2tpClvbQqEhgiUIiKNgqqoAAHgMVeK/8&#xA;5J/kZb+ddEk8xaHbAebdOj5UjFDewIN4Wp1kUf3Z/wBj4UVfLn5Lfmzqn5bebkvlLy6NdFYda08f&#xA;7siB+2qnb1Yq1U/NehOKrfz48723nP8ANHWdYspvX0xWS006QV4tBbqEDrWho7hn+nFWBwQSzzRw&#xA;QqXmlYJGg6szGgA+ZxV+nflTQ4tA8r6RocVOGmWcFoCvQ+jGqE/Txriqa4q7FXmf52fk7aefdJjv&#xA;tOZbDzjpP73RtUX4W5IeYgkYU+Bm+yf2DuO4KrybyV+Vn5Z/m1o97b6vpb+VPzD0KT6p5gh0/jbh&#xA;pVqFn+qkNDxkIPLgqnkDvTjVVIPMP/OE3nC3Zm0DXrHUIgahLtJbSSngOAuFJ+kYq8485/8AOPf5&#xA;oeT9GuNa1qwgTSrXiJ7pLu3YDmwVaIXWRiWalFUnFWP+QPy281efdSn07y5FDPd20YmljlnihPpl&#xA;gpdRIwLBSRXiDTFXsPl//nCnz1dOra5rNhpcJpVYBJdzDxBWkCfc+KvF/wAwvKF15O866x5auOTH&#xA;Trl44ZXHFpYD8UEtBUD1ImVvpxVW8mfmd578mXKTeXdYuLONW5NacvUtn8ecD8ozXxpXwOKvrz8k&#xA;v+cm9E88ywaFr8cekeaH+GEKSLW7bwhLElH/AOK2Jr2J6Yq9wxV2KuxV2KuxV2Ksc/MXykPN/kfW&#xA;vLXqiB9StmihmYVVJRR4mYDfiJFWtO2KsE/KD/nG3yh+X8kWq3T/AKa8yqPhv5kCxQE9fq8VW4nt&#xA;zYlvDjUjFXr2KuxV8O/85M/nbfeb/Mdz5Y0i4KeVdJmMTiM7XlzESHlcj7UattGOm3LuKKvMvy88&#xA;iaz5482WPl/SomZ7iRfrVwBVILcEepNIegVV+80A3IxV+llvBFbwRwRLxiiVUjXwVRQD7sVX4q7F&#xA;XYq7FXxp/wA5Y/k2dB1o+eNFgpo2rS01SGMbW94+/qbdEnO/s9f5gMVfO2KvSP8AnHfyt/iP83/L&#xA;1q6c7ayn/SNzUVASzHqryHg0iov04q/QzFXYq7FXYq8f/Nny9deVfNFj+b3l6Bmn04C2832cQ3u9&#xA;KaivLxH2pLcAN8lFdkxV6ppWs6Rq9ot5pV7Bf2jbLPbSJKlfDkhIriryL/nLvTr28/Jy5ltlLJY3&#xA;1rcXQFf7qrRVoOtHlXFXyf8AkZr9zoX5t+VryGT0xNqENnOa0Uw3jC3k5ewWSv0Yq/RnFXnX5s/k&#xA;Z5O/MmGKXUg9jrNspS21a2C+oE6iOVW2kQHcA7jsRU1VeB3n/OEXm5LkrZeY9Pmtq7SzRTQvT/UU&#xA;TD/h8Vei/lX/AM4l+XPKerW2u6/qB13VLN1ms4Fj9G1ilU1VypZ2lZSKqTQf5OKvfMVdirsVdirs&#xA;VdirsVdirsVU7iET28sJZkEqMhdDxdeQpVT2I7Yq8Dg/5ws/LFLz1ZNT1eW2BqtsZbda+zOsAJHy&#xA;offFXsPk3yF5Q8macdP8taZDp8DUMzIC0spHQyyuWkciu3I7dsVT/FXYq7FXYq7FXyx/zmt55Ai0&#xA;byTay/Ex/SepKp6AVjt0anj+8Yg/5JxV8pYq+p/+cIvKwM3mPzVKm6LFpdo/+sRPcD/hYsVfVuKu&#xA;xV2KuxV5n/zkpdX9t+SPmiSxZkmaGCJ2StfRluoo5ht2MTMG9sVfIv8Azjx5/wBU8pfmbo6QzuNL&#xA;1i5i0/U7Wp9N0uH9NJGX+aJ3DA9eo7nFX37qWm2Gp6fc6dqEC3NjeRPBc28gqrxyKVZT8wcVfLY/&#xA;5xJ8w6D+aOh6rodxDqHlS21O1u5lmf07qCCGZZXR1NFk+FaBlNT4DFX1birsVdirsVdirsVdirsV&#xA;dirsVdirsVdirsVdirsVdirsVdirsVUb69tLCyuL68lWC0tY3nuJn2VI41LOzeyqK4q/Nb8yPOd1&#xA;50876v5kuOSi/nZreJusdunwQR/7GNVB998VY1ir9Av+cZvLf6C/JrQldONxqayalP2r9ZYtEf8A&#xA;kQI8VepYq7FXYq7FUBr+iafruiX+i6jH6lhqMEltcoNjwlUqSpNaMK1B7HFXxFoX5F+cNA/PrQvL&#xA;FzbvJbRX8d/BqaKfSlsLWUStMG3CtxXiVPRyB3FVX3ZirsVdirsVdirsVdirsVdirsVdirsVdirs&#xA;VdirsVdirsVdirsVdirsVfP/APzl9+ZA0LybD5SspeOpeYa/WuJ+JLGM/H8vVeiDxAbFXxXiqra2&#xA;011cxW0K85p3WONR1LOeIH3nFX6iaPpkGlaRY6Xb/wC89hbxW0O1PghQIu3yXFUXirsVdirsVdir&#xA;sVdirsVdirsVdirsVdirsVdirsVdirsVdirsVdirsVdirsVdirsVdiqjfXtpYWVxfXkqwWlrG89x&#xA;M+ypHGpZ2b2VRXFX5wfmv5/uvPnnvUvMUvJLeZ/S0+BusVrF8MSfOnxN/lE4qxDFWUflbZC+/Mvy&#xA;paMvJJtXsVkAp9j6ynPrt9muKv0sxV2KuxV2KuxV2KuxV2KuxV2KuxV2KuxV2KuxV2KuxV2KuxV2&#xA;KuxV2KuxV2KuxV2KuxV2KvBP+cvvzCbQfIkPlqzl4ah5kcpNxO62UNDN7j1GKp7jlir4mxV2Ksu/&#xA;KG6S1/NTyhO9OA1ixViTQAPcIhYn25VxV+k2KuxV2KuxV2KuxV2KuxV2KuxV2KuxV2KuxV2KuxV2&#xA;KuxV2KuxV2KuxV2KuxV2KuxV2KuxV+fv/OSvnB/M35u6wyvys9IYaVaCtQFtSRL08Z2kPyxV5bir&#xA;sVRGn31xYahbX9ueNxaSpPC3g8bB1P3jFX6gaLqtpq+j2OrWbc7TULeK6t261jmQOvT2bFUZirsV&#xA;dirsVdirsVdirsVdirsVdirsVdirsVdirsVdirsVdirsVdirsVdirsVdirsVQ2p3q2Gm3d8y8ltI&#xA;ZJ2UdSI0LEfhir8ubq5nu7qa6uHMk87tLK56s7ksxPzJxVSxV2KuxV9s/wDOIX5iRa75EfytdS11&#xA;Ty6xWJT9p7KVi0TCvX03LIadBx8cVe94q7FXYq7FXYq7FXYq7FXYq7FXYq7FXYq7FXYq7FXYq7FX&#xA;Yq7FXYq7FXYq7FXYq7FUFrllLfaJqFlCQJbq2mhjLbDlJGVFfpOKviL/AKFD/OX/AJZrH/pLX+mK&#xA;u/6FD/OX/lmsf+ktf6Yq7/oUP85f+Wax/wCktf6Yq7/oUP8AOX/lmsf+ktf6Yqyb8uf+cf8A8/PI&#xA;nm6x8x6Xb2LSWzcbi2N4oSe3faWF/hOzDoabNQ9sVfYaMzIrMpRiAShoSCexpUYq3irsVdirsVdi&#xA;rsVdirsVdirsVdirsVdir//Z</xmpGImg:image>
               </rdf:li>
            </rdf:Alt>
         </xmp:Thumbnails>
         <xmpMM:InstanceID>xmp.iid:c8f3856f-9128-4a7b-8f8e-0159d941e512</xmpMM:InstanceID>
         <xmpMM:DocumentID>xmp.did:c8f3856f-9128-4a7b-8f8e-0159d941e512</xmpMM:DocumentID>
         <xmpMM:OriginalDocumentID>uuid:5D20892493BFDB11914A8590D31508C8</xmpMM:OriginalDocumentID>
         <xmpMM:RenditionClass>proof:pdf</xmpMM:RenditionClass>
         <xmpMM:DerivedFrom rdf:parseType="Resource">
            <stRef:instanceID>uuid:cc769589-b4b2-f94d-9790-2b8651b36cc5</stRef:instanceID>
            <stRef:documentID>xmp.did:09449407-5a9c-4e8a-94c2-42451661e1f0</stRef:documentID>
            <stRef:originalDocumentID>uuid:5D20892493BFDB11914A8590D31508C8</stRef:originalDocumentID>
            <stRef:renditionClass>proof:pdf</stRef:renditionClass>
         </xmpMM:DerivedFrom>
         <xmpMM:History>
            <rdf:Seq>
               <rdf:li rdf:parseType="Resource">
                  <stEvt:action>saved</stEvt:action>
                  <stEvt:instanceID>xmp.iid:09449407-5a9c-4e8a-94c2-42451661e1f0</stEvt:instanceID>
                  <stEvt:when>2022-11-24T14:02:52+02:00</stEvt:when>
                  <stEvt:softwareAgent>Adobe Illustrator 27.0 (Macintosh)</stEvt:softwareAgent>
                  <stEvt:changed>/</stEvt:changed>
               </rdf:li>
               <rdf:li rdf:parseType="Resource">
                  <stEvt:action>saved</stEvt:action>
                  <stEvt:instanceID>xmp.iid:c8f3856f-9128-4a7b-8f8e-0159d941e512</stEvt:instanceID>
                  <stEvt:when>2022-11-24T15:22:20+02:00</stEvt:when>
                  <stEvt:softwareAgent>Adobe Illustrator 27.0 (Macintosh)</stEvt:softwareAgent>
                  <stEvt:changed>/</stEvt:changed>
               </rdf:li>
            </rdf:Seq>
         </xmpMM:History>
         <illustrator:StartupProfile>Print</illustrator:StartupProfile>
         <illustrator:CreatorSubTool>AIRobin</illustrator:CreatorSubTool>
         <xmpTPg:HasVisibleOverprint>False</xmpTPg:HasVisibleOverprint>
         <xmpTPg:HasVisibleTransparency>False</xmpTPg:HasVisibleTransparency>
         <xmpTPg:NPages>1</xmpTPg:NPages>
         <xmpTPg:MaxPageSize rdf:parseType="Resource">
            <stDim:w>12.000000</stDim:w>
            <stDim:h>12.000000</stDim:h>
            <stDim:unit>Inches</stDim:unit>
         </xmpTPg:MaxPageSize>
         <xmpTPg:PlateNames>
            <rdf:Seq>
               <rdf:li>Cyan</rdf:li>
               <rdf:li>Magenta</rdf:li>
               <rdf:li>Yellow</rdf:li>
               <rdf:li>Black</rdf:li>
            </rdf:Seq>
         </xmpTPg:PlateNames>
         <xmpTPg:SwatchGroups>
            <rdf:Seq>
               <rdf:li rdf:parseType="Resource">
                  <xmpG:groupName>Default Swatch Group</xmpG:groupName>
                  <xmpG:groupType>0</xmpG:groupType>
                  <xmpG:Colorants>
                     <rdf:Seq>
                        <rdf:li rdf:parseType="Resource">
                           <xmpG:swatchName>White</xmpG:swatchName>
                           <xmpG:type>PROCESS</xmpG:type>
                           <xmpG:tint>100.000000</xmpG:tint>
                           <xmpG:mode>RGB</xmpG:mode>
                           <xmpG:red>255</xmpG:red>
                           <xmpG:green>255</xmpG:green>
                           <xmpG:blue>255</xmpG:blue>
                        </rdf:li>
                        <rdf:li rdf:parseType="Resource">
                           <xmpG:swatchName>Black</xmpG:swatchName>
                           <xmpG:type>PROCESS</xmpG:type>
                           <xmpG:tint>100.000000</xmpG:tint>
                           <xmpG:mode>RGB</xmpG:mode>
                           <xmpG:red>0</xmpG:red>
                           <xmpG:green>0</xmpG:green>
                           <xmpG:blue>0</xmpG:blue>
                        </rdf:li>
                     </rdf:Seq>
                  </xmpG:Colorants>
               </rdf:li>
            </rdf:Seq>
         </xmpTPg:SwatchGroups>
         <pdf:Producer>Adobe PDF library 16.07</pdf:Producer>
         <photoshop:AuthorsPosition>Pixfiniti</photoshop:AuthorsPosition>
         <xmpRights:Marked>True</xmpRights:Marked>
         <xmpRights:WebStatement>www.dreamstale.com</xmpRights:WebStatement>
      </rdf:Description>
   </rdf:RDF>
</x:xmpmeta>
                                                                                                    
                                                                                                    
                                                                                                    
                                                                                                    
                                                                                                    
                                                                                                    
                                                                                                    
                                                                                                    
                                                                                                    
                                                                                                    
                                                                                                    
                                                                                                    
                                                                                                    
                                                                                                    
                                                                                                    
                                                                                                    
                                                                                                    
                                                                                                    
                                                                                                    
                                                                                                    
                           
<?xpacket end="w"?>
	</metadata>
<path d="M822.58,530.61c-9.75-5.36-21.51-10.18-31.83-8.23c7.33-8.84,15.72-20.64,19.83-30.42c28.1-0.3,35.42-46.22,16-62.31
	c-15.31,12.69-32.84,40.57-20.81,59.9c-37.95,51.27-109.44,82.42-173.13,64.56c31.06-9.71,67.02-31.19,89.49-53.48
	c24.67,5.6,39.78-33.14,27.41-50.81c-16.51,7.25-37.28,27.88-30.49,47.36c-14.7,11.35-36.94,24.94-55.95,33.69
	c7.91-12.56,7.11-34.72-6.22-43.27c-11.76,13.3-24.69,34.58-14.58,51.66c-9.19,3.25-18.61,6.02-27.69,9.18
	c-12.65-4.71-24.31-11.63-36.04-18.46c18.32-4.36,32.78-31.94,22.41-48.98c-16.18,6.42-38.87,20.69-40.06,39.32
	c-21.34-11.49-45.32-14.87-66.08-7.78c2.81-21.75,4.48-44.02,4.94-66.48c15.77-7.9,30.75-16.91,47.56-22.61
	c5.4,2.32,12.39,4.64,18.33,6.87c-12.82,8.31-7.83,34.83,2.4,42.63c9.33-6.16,15.59-26.81,9.64-37.77
	c7.68,3.27,16.36,7.37,24.11,11.27c0.35,19.86,24.76,32.02,42.29,32.98c5.3-19.41-20.94-50.19-40.82-36.63
	c-13.82-8.47-31.88-17.69-45.8-22.48c36.35-10.29,77.35-7.04,111.36,7.31c-1.76,19.73,20.93,34.71,38.19,38.02
	c7.71-18.26-13.43-51.5-34.73-42.56c-17.19-10.14-39.21-17.26-59.92-19.67c17.38-8.77,36.86-17.06,56.87-19.91
	c13.71,20.48,43.58,19.97,65.56,15.07c-1.01-28.4-53.33-48.92-65.97-19.04c-23.8,2.58-47.8,8.92-66.09,22.98
	c-7.37-0.49-14.8-0.5-22.19-0.03c12.03-11.39,13.08-38.3,2.34-50.68c-15.99,8.63-31.89,35.79-20.27,52.78
	c-22.92,3.95-44.75,12.76-62.72,26.73c-0.07-22.65-1.36-45.42-3.99-67.95c5.92-8.04,9.57-13.38,15.49-20.5
	c10.31,13.15,34.22,8.92,45.85-0.4c-4.77-10.21-20.64-16.04-31.76-15.03c4.79-4.71,9.85-9.13,15.22-13.19
	c25.08-0.61,41,1.64,59.58,10.07c-0.34,23.29,26.49,38.84,46.85,42.7c9.37-23.56-20.66-62.42-45.26-46.55
	c-15.51-8.59-34.93-13.56-51.84-12.69c26.24-17.5,58.49-18.94,89.23-26.9c3.35,21.82,28.73,32.76,48.63,35.85
	c5.8-17.53-9.56-38.21-25.78-44.01c7.81-3.78,15.7-9.09,21.53-15.1c28.43,8.23,46.46-37.79,28.84-57.23
	c-16.7,10.37-38.12,32.68-31.63,53.54c-28.96,19.06-56.55,17.63-89.5,23.02c6.99-8.65,11.97-17.36,17.72-28.88
	c8.15,13.72,35.82,8.81,43.95-1.8c-6.3-9.6-27.67-16.13-38.82-9.78c1.64-4.08,3.09-8.19,4.28-12.21
	c22.6-4.5,24.42-43.86,11.73-57.87c-16.54,7.14-32.76,42.69-14.86,56.57c-7.12,19.7-21.02,39.24-32,55.41
	c-4.51,0.9-9.25,1.89-13.71,3.34c11.17-14.86,1.62-45.88-15.89-51.85c-9.33,15.35-15.35,44.73,0.29,57.69
	c-25.3,11.08-48.45,29.43-61.29,52.91c-4.62-29.18-11.56-57.76-20.98-84.96c6.2-18.75,13.35-36.45,22.72-52.53
	c14.54,15.3,41.8,9.62,58.49,0.57c-5.67-16.97-29.35-24.61-45.49-20.17c12.26-16.6,30.92-33.36,48.42-44.76
	c20.48,12.05,46.31,0.6,65.15-10.71c-10.41-27.69-69.58-26.56-68.2,7.14c-11.13,5.51-23.98,14.25-33.24,21.96
	c2.75-13.8,0.83-33.33-7.1-45.05c-22.01,7.51-36.33,51.34-11.97,63.99c-15.35,17.52-29.22,39.37-35.46,61.53
	c-9.84-24.8-20.31-48.25-34.71-69.71c-1.53-10.33-4.48-20.13-3.87-30.54c16.91,5.94,33.46-3.07,49.19-8.82
	c-4.12-19.06-34.27-22.45-46.72-9.99c1.81-8.15,4.6-16.08,8.45-23.59c20.47,2.29,36.46-17.32,44.96-34.12
	c-18.89-14.39-60.08,7.68-48.31,32.02c-10.99,17.25-16.67,40.77-14.46,60.84c-8.22-10.41-20.44-17.91-32.91-23.45
	c11.52-16.06,0.58-39.6-11.47-52.42c-13.62,8.24-15.47,33.97-6.15,46.39c-7.73-2.05-16.17-3.71-24.21-4.82
	c-7.7-21.99-46.03-13.01-50.54,7.39c14.62,5.91,37.59,10.38,49.27-2.84c52.42,9.59,84.8,41.78,94.83,94.91
	c-14.69-12.19-44.39-11.54-55.72,5.17c14.26,13.91,42.6,29.34,61.21,17.31c3.39,14.68,6.36,29.26,8.88,43.75
	c-20.27-15.04-48.3-23.32-71.69-30.1c-5.75-13.34-12.08-28.63-14.13-44.34c15.86-10.68,12.46-36.84,3.56-51.14
	c-18.03,6.53-28.25,43.63-6.56,51.92c1.22,15.08,4.85,31.7,8.96,41.2c-32.28-9.33-62.6-19.01-87.46-47.24
	c15.05-19.24,3.13-49.64-10.83-66.86c-24.15,12.77-24.65,65.78,6.29,68.85c9.44,16.02,22.86,27.86,38.35,37.17
	c-8.08,0.17-17.56,1.49-26.11,4.01c-10.86-16.71-40.75-1.56-41.39,15.47c13.72,3.23,35.48,2.13,41.77-12.75
	c12.16-1.97,26.32-4.9,37.39-0.4c-15.6,4.42-28.3,27.44-19.19,42.21c15.05-6.52,34.57-16.83,36.6-34.49
	c38.49,14.82,77.63,24.45,108.23,50.39c5.95,42.03,8.07,83.38,5.98,124.46c-14.49-20.64-35.12-39.4-56.86-55.16
	c0.3-4.74-0.72-10.73-2.71-17.23c25.51,3.38,33.92-41.85,11.93-52.03c-7.44,10.76-15.68,23.69-18.06,36.57
	c-3.7-7.71-8.3-15.32-13.3-21.77c8.09-20.97-25.71-37.45-41.27-26.4c6.34,13.99,21.7,32.15,38.73,28.11
	c9.51,14.26,13.91,27.47,16.55,47.03c-35.84-24.6-73.53-41.34-115.9-50.88c-2.68-11.05-18.92-26.88-36.3-37.41
	c-1.22-22.18-38.02-25.89-49.83-10.89c10.58,12.37,33.13,25.32,48.39,14.43c11.02,7.96,19.34,17.62,28.76,32.14
	c-20.13-3.58-44.22-5.99-60.18-5c-17.67-32.18-75.41-6.52-74.22,26.71c25.39,3.14,60.15,3.58,74.76-20.66
	c32.74,4.63,70.53,14.11,102.45,28.36c-10.41,0.02-22.34,1.27-33.56,3.84c-18.38-20.78-56.12,6.42-52.04,30.79
	c18.72,0.27,47.18-6.38,52.72-26.47c16.17-2.94,32.79-2.07,47.9-1c31.1,15.86,61.09,37.39,84.38,59.73
	c-20.64-6.67-45.15-10.43-65.41-10c-7.33-20.46-43.07-12.65-47.97,6.27c13.87,6.23,36.2,10.88,47.31-2.23
	c4.9,0.47,9.93,1.04,15.4,1.86c-13.94,5.8-25.65,25.38-19.22,40.07c16.9-4.34,40-16.35,39.53-36.31
	c15.45,3.62,29.67,9.14,44.11,14.49c2.77,3.07,5.32,6.13,8.05,9.18c-18.9,2.4-25.7,34.45-13.44,46.92
	c11.1-6.82,22.71-21.88,23.54-34.99c4.54,5.58,8.81,11.22,12.92,17.04c-4.35,39.23-12.66,78.33-25.3,117.69
	c-16.3-26-39.67-47.37-66.63-63.31c20.62-11.32,22.29-44.47,15.98-64.69c-23.06,2.57-41.24,35.42-32.41,55.85
	c-5.77-2.81-11.66-5.38-17.65-7.71c-5.47-25.02-49.7-72.23-90.29-74c-7.61-21.47-44.93-12.32-49.09,7.62
	c14.51,5.69,37.3,9.74,48.36-3.92c6.71,1.76,14.84,4.59,21.94,7.85c-17.08-0.56-36.5,19.5-32.63,37.07
	c17.96-0.96,43.8-8.62,47.14-28.97c18.62,12.34,33.24,30.17,42.92,50.15c-40.05-13.33-85.2-16.35-124.86-5.24
	c-13.57-18.14-46.88,5.63-38.53,25.18c14.47-3.81,32.31-6.47,39.66-20.78c11.13-0.79,27.78-1.34,41.13-0.51
	c-11.74,6.45-20.58,25.84-15.16,38.18c15.67-3.27,37.2-18.26,33.53-36.47c37.2,4.61,72.73,18.75,103.98,39.37
	c-13.18,9.44-30.35,19.48-46.77,25.8c1.42-18.29-19.78-33.68-36.01-36.99c-6.23,13.96,4.17,35.87,17.53,42.67
	c-78.76,17.3-123.72-19.63-180.95-64.91c20.78-8.03,17.68-46.57,3.91-58.81c-13.78,7.66-25.16,37.83-14.94,52.56
	c-3.9-1.9-7.93-3.53-12.11-4.78c-7.46-30.66-60.66-20.78-66.04,6.98c20.34,7.46,48.98,14.36,65.46-3.18
	c13.87,6.81,26.31,16.31,38.32,26.85c-19.4-3.12-44.04,20.48-41.53,39.89c19.23,1.71,50.44-6.67,55.07-28.1
	c8.57,7.39,17.45,14.66,26.92,20.8c-16.24,3.17-29.05,28.19-18.59,42.46c13.65-7.28,31.29-17.57,33.26-34
	c20,10.28,41.94,16.72,64.26,18.95c-9.09,7.72-19.73,21.16-21.65,33.03c19.19,9.22,55.75-9.06,51.77-32.6
	c34.05-2.59,70.3-14.3,95.64-36.81c21.83,16.25,34.09,38.75,49.98,60.74c-11.46,31.08-25.65,62.38-42.72,94.07h0.01
	c-17.61,35.4-32.53,70.9-27.22,101.37h128.41c-66.14-83.71-7.21-174.97,6.26-265.2c49.7-22.78,93.69,33.16,117.26,70.86
	c-11.69,16.29,2,41.07,16.67,50.8c13.98-13.74,9.98-52.28-13.72-52.9c-7.13-17.29-19.81-35.86-34.52-51.49
	c24.69,13.29,52.64,21.02,81.17,21.65c-14.9,16.03,2.44,48.89,23.41,49.98c3.61-15.33,3.03-39.36-9.71-50.17
	c14.72-0.7,29.29-3.43,43.25-7.9c0.87,31.29,53.14,39.3,70.19,16.29c-11.09-12.86-28.92-22.59-44.82-26.73
	c14.29-7.28,27.53-16.58,39.17-27.65c6.21,22.56,45.4,23.32,58.13,6.82C833.64,537.72,828.32,533.86,822.58,530.61z"/>
</svg>
